<?xml version="1.0" encoding="utf-8"?>
<!-- Generator: Adobe Illustrator 18.0.0, SVG Export Plug-In . SVG Version: 6.00 Build 0)  -->
<!DOCTYPE svg PUBLIC "-//W3C//DTD SVG 1.1//EN" "http://www.w3.org/Graphics/SVG/1.1/DTD/svg11.dtd">
<svg version="1.1" id="Capa_1" xmlns="http://www.w3.org/2000/svg" xmlns:xlink="http://www.w3.org/1999/xlink" x="0px" y="0px"
	 viewBox="0 0 370.4 370.4" enable-background="new 0 0 370.4 370.4" xml:space="preserve">
<g>
	<path fill="#FFFFFF" d="M185.2,370.4h185.2V185.2C370.4,287.5,287.5,370.4,185.2,370.4z"/>
	<path fill="#FFFFFF" d="M185.2,0H0v185.2C0,83,83,0,185.2,0z"/>
	<path fill="#FFFFFF" d="M0,185.2v185.2h185.2C83,370.4,0,287.5,0,185.2z"/>
	<path fill="#FFFFFF" d="M185.2,0c12.1,0,23.9,1.2,35.3,3.4c-4,6.5-6.3,14-6.3,22.2c0,17.6,10.8,32.7,26.2,39
		c-2.2,5.5-3.4,11.4-3.4,17.7c0,26.1,21.1,47.2,47.2,47.2c7.2,0,13.9-1.5,20-4.4c6.1,15.6,21.3,26.7,39.1,26.7
		c8.3,0,16.1-2.5,22.7-6.6c2.8,12.9,4.3,26.3,4.3,40.1V0H185.2z M256.1,55.6c-2.7-0.6-11.9-10-12-13.1c-0.2-3.2,6-6.1,9.8-6.5
		c3.8-0.5,4.8,3.3,4.8,3.3s3.1,11.2,3.1,14.1S258.5,56.1,256.1,55.6z M261.7,33.9c-0.8-0.3-2.6-3.2-2.6-3.2c0.5-1.2,2.2-3.1,3.1-2.9
		c0.9,0.2,2.2,2.9,2.2,2.9S262.5,34.1,261.7,33.9z M285.1,91.8c-2.4,0.7-11.3-3.8-11.3-3.8c-0.5-3.6,0.6-10.8,3-11.9
		s9.8,3.9,9.8,3.9S287.5,91.1,285.1,91.8z M300.5,113.3c-1.2,0.4-5.8-2.5-5.8-2.5l2.5-6.1c3.2-0.8,4.4,0.8,4.8,1.5
		C302.4,106.8,301.7,112.8,300.5,113.3z M308.1,95.7c-3.2-0.3-13.3-15.4-13.3-15.4l8.7-8.3h7.5l5.4,10.8
		C316.4,82.8,311.4,96.2,308.1,95.7z M336,109.8c-1.4-0.5-4.3-5.2-4.3-5.2c0.8-1.9,3.5-5,5-4.8s3.5,4.8,3.5,4.8
		S337.3,110.2,336,109.8z"/>
</g>
</svg>
