<?xml version="1.0" encoding="utf-8"?>
<!-- Generator: Adobe Illustrator 18.0.0, SVG Export Plug-In . SVG Version: 6.00 Build 0)  -->
<!DOCTYPE svg PUBLIC "-//W3C//DTD SVG 1.1//EN" "http://www.w3.org/Graphics/SVG/1.1/DTD/svg11.dtd">
<svg version="1.1" id="Capa_1" xmlns="http://www.w3.org/2000/svg" xmlns:xlink="http://www.w3.org/1999/xlink" x="0px" y="0px"
	 viewBox="0 0 480 246.4" enable-background="new 0 0 480 246.4" xml:space="preserve">
<g>
	<path fill="#FF7BAC" d="M134.1,103.5h-16.2L78.3,28.8v72.5h6.4v2.2H68.8v-2.2h6.4V24.8h-6.4v-2.2h31.9l30.3,58V24.8h-6.4v-2.2h15.8
		v2.2h-6.4V103.5z"/>
	<path fill="#FF7BAC" d="M172.3,48.5v52.9h6.5v2.1h-34.3v-2.1h6.4V50.6H144v-2.1H172.3z M161.9,19.1c7.2,0,11.4,3.6,11.4,10.6
		c0,6.1-3.3,10.9-11.7,10.9c-9.4,0-11.6-5.9-11.6-10.7C150.1,24.1,153.3,19.1,161.9,19.1z"/>
	<path fill="#FF7BAC" d="M211.4,47.4c18.1,0,25.9,9.1,25.2,26.3H204v4.5c0,13.6,2.4,22.9,13.6,22.9c8.5,0,14.3-5.4,16.9-14.3
		l2.1,0.3c-2.7,9.9-8.7,17.6-25.1,17.6c-20.6,0-29.8-11.8-29.8-28.5C181.7,56.1,195.3,47.4,211.4,47.4z M216,71.4v-5.7
		c0-12.1-0.9-16.2-5.7-16.2c-4,0-6.2,3.9-6.2,16.2v5.7H216z"/>
	<path fill="#FF7BAC" d="M236.7,48.5h34.5v2.1h-7.3l13.9,38.3l12.5-38.3h-7.7v-2.1h15.6v2.1H293l-17.1,52.9h-13.2l-21.4-52.9h-4.7
		V48.5z"/>
	<path fill="#FF7BAC" d="M326.6,47.4c18.1,0,25.9,9.1,25.2,26.3h-32.6v4.5c0,13.6,2.4,22.9,13.6,22.9c8.5,0,14.3-5.4,16.9-14.3
		l2.1,0.3c-2.7,9.9-8.7,17.6-25.1,17.6c-20.6,0-29.8-11.8-29.8-28.5C296.9,56.1,310.6,47.4,326.6,47.4z M331.3,71.4v-5.7
		c0-12.1-0.9-16.2-5.7-16.2c-4,0-6.2,3.9-6.2,16.2v5.7H331.3z"/>
	<path fill="#FF7BAC" d="M357.5,84h1.4c4.3,14.1,11.3,18.1,20.8,18.1c8.5,0,11.8-3.1,11.8-7.5c0-5.2-5.7-6.4-14.4-8.8
		c-9.2-2.5-19.5-6.1-19.5-18.9c0-11.8,8.1-19.5,20.3-19.5c5.1,0,8.5,1.3,11.7,2.7c1.4,0.6,1.8,0.9,3.2,0.9c1.7,0,2.5-0.9,4-3.8h1.3
		v17.7h-1.4c-4.2-10.6-10-15-18.2-15c-7.6,0-10.7,3.1-10.7,6.7c0,5.3,6.9,6.6,14.6,8.7c9.1,2.4,19.3,6.1,19.3,19.8
		c0,13.2-8.5,19.8-21.6,19.8c-5.5,0-9.5-1.2-13.9-3.4c-0.7-0.5-1.7-0.9-2.2-0.9c-1.5,0-3.1,1-5,4.3h-1.4V84z"/>
	<path fill="#FF7BAC" d="M411.2,49.7c7.6-5,10.7-9.8,10.7-14.1c0-2.8-1.7-3.9-3.1-4.2l-4.9,4.5c-2.7-0.9-6.1-3.7-6.1-8.1
		c0-5.1,4.2-8.4,9.2-8.4c6.2,0,10.4,4,10.4,11.1c0,8.8-6.7,15.5-15.2,20.8L411.2,49.7z"/>
	<path fill="#FF7BAC" d="M56.6,181.4v9.1c0,21.3,6.1,35,18.7,35c9.4,0,16.9-9.7,23.3-24.7h2.1l-0.8,25.8h-1.3
		c-0.8-1.5-1.3-2.3-3.1-2.3c-3.9,0-10.3,3.6-23,3.6c-24.5,0-39.5-12.9-39.5-40.5c0-28,16.2-42.7,39.8-42.7c12,0,17.6,3.6,21.6,3.6
		c1.8,0,2.3-0.8,3.1-2.3h1.3l0.9,25.1h-2.1c-6.4-14.2-13.3-24-23.2-24C62.8,146.9,56.6,157.5,56.6,181.4z"/>
	<path fill="#FF7BAC" d="M138.9,170.6c19.4,0,28.6,9.1,28.6,27.8c0,18.9-8.8,29.5-29.3,29.5c-19.4,0-29.2-10.4-29.2-28.4
		C108.9,180.5,120.3,170.6,138.9,170.6z M145.3,194.1c0-12.5-0.3-21.5-6.8-21.5c-7,0-7.4,9-7.4,22.1v9c0,13.4,0.2,22.1,7.3,22.1
		c6.6,0,6.9-6.8,6.9-21.8V194.1z"/>
	<path fill="#FF7BAC" d="M201.6,170.6c19.4,0,28.6,9.1,28.6,27.8c0,18.9-8.8,29.5-29.3,29.5c-19.4,0-29.2-10.4-29.2-28.4
		C171.7,180.5,183,170.6,201.6,170.6z M208,194.1c0-12.5-0.3-21.5-6.8-21.5c-7,0-7.4,9-7.4,22.1v9c0,13.4,0.2,22.1,7.3,22.1
		c6.6,0,6.9-6.8,6.9-21.8V194.1z"/>
	<path fill="#FF7BAC" d="M271.2,224.6h5.3l-13.1-26.8l-2.2,0.6v26.2h5.3v2.1h-33.2v-2.1h6.4v-82.5H233v-2.1h28.3v56l1.8-0.7l26-21.6
		h-10.9v-2.1H301v2.1h-8.1l-13.7,11.7l20,39.2h4.2v2.1h-32.1V224.6z"/>
	<path fill="#FF7BAC" d="M332.9,171.7v52.9h6.5v2.1h-34.3v-2.1h6.4v-50.8h-6.8v-2.1H332.9z M322.5,142.3c7.2,0,11.4,3.6,11.4,10.6
		c0,6.1-3.4,10.9-11.7,10.9c-9.4,0-11.6-5.9-11.6-10.7C310.7,147.3,313.9,142.3,322.5,142.3z"/>
	<path fill="#FF7BAC" d="M372,170.6c18.1,0,25.9,9.1,25.2,26.3h-32.6v4.5c0,13.6,2.4,22.9,13.6,22.9c8.5,0,14.3-5.4,16.9-14.3
		l2.1,0.3c-2.7,9.9-8.7,17.6-25.1,17.6c-20.6,0-29.8-11.8-29.8-28.5C342.3,179.3,355.9,170.6,372,170.6z M376.6,194.6v-5.7
		c0-12.1-0.9-16.2-5.7-16.2c-4,0-6.2,3.9-6.2,16.2v5.7H376.6z"/>
	<path fill="#FF7BAC" d="M402.8,207.2h1.4c4.3,14.1,11.3,18.1,20.8,18.1c8.5,0,11.8-3.1,11.8-7.5c0-5.2-5.7-6.4-14.4-8.8
		c-9.2-2.5-19.5-6.1-19.5-18.9c0-11.8,8.1-19.5,20.3-19.5c5.1,0,8.5,1.3,11.7,2.7c1.4,0.6,1.8,0.9,3.2,0.9c1.7,0,2.5-0.9,4-3.8h1.3
		V188H442c-4.2-10.6-10-15-18.3-15c-7.6,0-10.7,3.1-10.7,6.7c0,5.3,6.9,6.6,14.6,8.7c9.1,2.4,19.3,6.1,19.3,19.8
		c0,13.2-8.5,19.8-21.6,19.8c-5.5,0-9.5-1.2-13.9-3.4c-0.7-0.5-1.7-0.9-2.2-0.9c-1.5,0-3.1,1-5,4.3h-1.4V207.2z"/>
</g>
</svg>
