<?xml version="1.0" encoding="utf-8"?>
<!-- Generator: Adobe Illustrator 18.0.0, SVG Export Plug-In . SVG Version: 6.00 Build 0)  -->
<!DOCTYPE svg PUBLIC "-//W3C//DTD SVG 1.1//EN" "http://www.w3.org/Graphics/SVG/1.1/DTD/svg11.dtd">
<svg version="1.1" id="Capa_1" xmlns="http://www.w3.org/2000/svg" xmlns:xlink="http://www.w3.org/1999/xlink" x="0px" y="0px"
	 viewBox="0 0 252 146.7" enable-background="new 0 0 252 146.7" xml:space="preserve">
<path d="M54.1,35.8v5.5c1-3,3-6.1,8.9-6.1c5.6,0,9.3,2.8,9.3,10v18.1h3.4v1.1h-17v-1.1h2.5V43.8c0-5.1-0.7-5.7-2.2-5.7
	c-2.5,0-4.9,3.8-4.9,8.6v16.6h2.6v1.1h-17v-1.1h3.3V36.9h-3.3v-1.1H54.1z"/>
<path d="M90.9,35.8v27.5h3.4v1.1H76.4v-1.1h3.3V36.9h-3.5v-1.1H90.9z M85.5,20.5c3.7,0,5.9,1.9,5.9,5.5c0,3.2-1.7,5.6-6.1,5.6
	c-4.9,0-6-3.1-6-5.6C79.4,23.1,81,20.5,85.5,20.5z"/>
<path d="M111.2,35.2c9.4,0,13.4,4.7,13.1,13.7h-16.9v2.3c0,7.1,1.3,11.9,7.1,11.9c4.4,0,7.4-2.8,8.8-7.4l1.1,0.2
	c-1.4,5.2-4.5,9.1-13,9.1c-10.7,0-15.5-6.1-15.5-14.8C95.8,39.8,102.8,35.2,111.2,35.2z M113.6,47.7v-2.9c0-6.3-0.5-8.4-2.9-8.4
	c-2.1,0-3.2,2-3.2,8.4v2.9H113.6z"/>
<path d="M124.3,35.8h17.9v1.1h-3.8l7.2,19.9l6.5-19.9h-4v-1.1h8.1v1.1h-2.6l-8.9,27.5h-6.8l-11.1-27.5h-2.5V35.8z"/>
<path d="M171,35.2c9.4,0,13.4,4.7,13.1,13.7h-16.9v2.3c0,7.1,1.3,11.9,7.1,11.9c4.4,0,7.4-2.8,8.8-7.4l1.1,0.2
	c-1.4,5.2-4.5,9.1-13,9.1c-10.7,0-15.5-6.1-15.5-14.8C155.6,39.8,162.7,35.2,171,35.2z M173.4,47.7v-2.9c0-6.3-0.5-8.4-2.9-8.4
	c-2.1,0-3.2,2-3.2,8.4v2.9H173.4z"/>
<path d="M187.1,54.2h0.7c2.2,7.3,5.9,9.4,10.8,9.4c4.4,0,6.1-1.6,6.1-3.9c0-2.7-2.9-3.3-7.5-4.6c-4.8-1.3-10.1-3.2-10.1-9.8
	c0-6.1,4.2-10.1,10.6-10.1c2.6,0,4.4,0.7,6.1,1.4c0.7,0.3,1,0.5,1.7,0.5c0.9,0,1.3-0.5,2.1-2h0.7v9.2h-0.7c-2.2-5.5-5.2-7.8-9.5-7.8
	c-4,0-5.6,1.6-5.6,3.5c0,2.8,3.6,3.4,7.6,4.5c4.7,1.3,10,3.2,10,10.3c0,6.8-4.4,10.3-11.2,10.3c-2.9,0-4.9-0.6-7.2-1.7
	c-0.4-0.2-0.9-0.5-1.1-0.5c-0.8,0-1.6,0.5-2.6,2.2h-0.7V54.2z"/>
<path d="M34.1,109.7v3.1c0,7.7,1.4,11.1,6.1,11.1c5.5,0,7.8-4.6,8.5-7.9l1.1,0.1c-0.8,3.7-2.8,9.8-12.8,9.8
	c-9.2,0-14.4-5.2-14.4-14.5c0-10.1,6.1-15.2,16-15.2c7.3,0,11,3.1,11,7.6c0,3.7-2,5.6-5,5.6c-3.1,0-5.3-1.6-5.3-5
	c0-0.5,0.1-1.3,0.3-2.2h2c0.3-0.8,0.4-1.6,0.4-2.2c0-2-1.2-2.9-2.9-2.9C35.5,97.3,34.1,100.8,34.1,109.7z"/>
<path d="M67.2,96.2c10.1,0,14.9,4.7,14.9,14.5c0,9.8-4.6,15.3-15.2,15.3c-10.1,0-15.2-5.4-15.2-14.8C51.7,101.4,57.6,96.2,67.2,96.2
	z M70.6,108.5c0-6.5-0.2-11.2-3.5-11.2c-3.7,0-3.8,4.7-3.8,11.5v4.7c0,7,0.1,11.5,3.8,11.5c3.4,0,3.6-3.5,3.6-11.3V108.5z"/>
<path d="M99.8,96.2c10.1,0,14.9,4.7,14.9,14.5c0,9.8-4.6,15.3-15.2,15.3c-10.1,0-15.2-5.4-15.2-14.8C84.3,101.4,90.1,96.2,99.8,96.2
	z M103.2,108.5c0-6.5-0.2-11.2-3.5-11.2c-3.7,0-3.8,4.7-3.8,11.5v4.7c0,7,0.1,11.5,3.8,11.5c3.4,0,3.6-3.5,3.6-11.3V108.5z"/>
<path d="M136,124.3h2.8l-6.8-13.9l-1.1,0.3v13.6h2.8v1.1h-17.2v-1.1h3.3V81.5h-3.5v-1.1h14.7v29.1l1-0.4l13.5-11.2h-5.6v-1.1h11.8
	v1.1h-4.2l-7.1,6.1l10.4,20.3h2.2v1.1H136V124.3z"/>
<path d="M168,96.8v27.5h3.4v1.1h-17.8v-1.1h3.3V97.9h-3.5v-1.1H168z M162.6,81.5c3.7,0,5.9,1.9,5.9,5.5c0,3.2-1.7,5.6-6.1,5.6
	c-4.9,0-6-3.1-6-5.6C156.5,84.2,158.1,81.5,162.6,81.5z"/>
<path d="M188.3,96.2c9.4,0,13.4,4.7,13.1,13.7h-16.9v2.3c0,7.1,1.3,11.9,7.1,11.9c4.4,0,7.4-2.8,8.8-7.4l1.1,0.2
	c-1.4,5.2-4.5,9.1-13,9.1c-10.7,0-15.5-6.1-15.5-14.8C172.9,100.8,180,96.2,188.3,96.2z M190.7,108.7v-2.9c0-6.3-0.5-8.4-2.9-8.4
	c-2.1,0-3.2,2-3.2,8.4v2.9H190.7z"/>
<path d="M204.3,115.2h0.7c2.2,7.3,5.9,9.4,10.8,9.4c4.4,0,6.1-1.6,6.1-3.9c0-2.7-2.9-3.3-7.5-4.6c-4.8-1.3-10.1-3.2-10.1-9.8
	c0-6.1,4.2-10.1,10.6-10.1c2.6,0,4.4,0.7,6.1,1.4c0.7,0.3,1,0.5,1.7,0.5c0.9,0,1.3-0.5,2.1-2h0.7v9.2h-0.7c-2.2-5.5-5.2-7.8-9.5-7.8
	c-4,0-5.6,1.6-5.6,3.5c0,2.8,3.6,3.4,7.6,4.5c4.7,1.3,10,3.2,10,10.3c0,6.8-4.4,10.3-11.2,10.3c-2.9,0-4.9-0.6-7.2-1.7
	c-0.4-0.2-0.9-0.5-1.1-0.5c-0.8,0-1.6,0.5-2.6,2.2h-0.7V115.2z"/>
<path d="M215,36.4c4-2.6,5.6-5.1,5.6-7.3c0-1.4-0.9-2-1.6-2.2l-2.5,2.3c-1.4-0.5-3.2-1.9-3.2-4.2c0-2.6,2.2-4.4,4.8-4.4
	c3.2,0,5.4,2.1,5.4,5.8c0,4.6-3.5,8-7.9,10.8L215,36.4z"/>
</svg>
